# File created by Blade
# Date/Time:  Fri Jan 16 17:25:22 2015
# Frame Rate: 120.000 fps
#------------------------------------------------------
:FULLY-SPECIFIED
:DEGREES
1479
root -5.686215 35.184012 -9.341719 0.536395 -6.303899 -5.774202
Spine -2.780224 -0.437599 9.898937
Head 1.158536 8.054023 -7.788714
LeftShoulder -25.584045 14.235209 6.255357
LeftArm 27.054039 -58.378026 -35.507448
LeftForeArm 20.834685 0.000000 4.823971
LeftHand -7.841644 -0.000000 0.288765
LeftHandThumb1 -26.253704 0.000000 33.147579
RightShoulder -10.079964 16.191135 -25.025975
RightArm -4.594046 20.084167 16.170495
RightForeArm -35.659394 0.000000 17.105485
RightHand -9.572966 -0.000000 3.945432
RightHandThumb1 -24.326973 -0.000000 -32.862282
LeftUpLeg 11.009648 14.790045 6.966940
LeftLeg -9.655540 -0.000000 0.000000
LeftFoot -16.122870 28.733162 -9.375324
LeftToeBase 22.240506 -0.000000 -0.000000
RightUpLeg 7.257980 -5.310467 2.411293
RightLeg -4.517938 -0.000000 0.000000
RightFoot -5.701204 -24.302594 6.604976
RightToeBase 13.515347 -0.000000 -0.000000
1480
root -5.687014 35.184057 -9.340995 0.536777 -6.310079 -5.778562
Spine -2.773909 -0.431745 9.889452
Head 1.157354 8.063374 -7.773280
LeftShoulder -25.580392 14.230995 6.254342
LeftArm 27.022209 -58.391116 -35.465694
LeftForeArm 20.830486 -0.000000 4.794609
LeftHand -7.798880 0.000000 0.230748
LeftHandThumb1 -26.253704 0.000000 33.147579
RightShoulder -10.076819 16.188197 -25.004604
RightArm -4.590496 20.103197 16.160377
RightForeArm -35.636249 -0.000000 17.111575
RightHand -9.609944 -0.000000 3.957485
RightHandThumb1 -24.326973 -0.000000 -32.862282
LeftUpLeg 11.016438 14.782679 6.971209
LeftLeg -9.663509 -0.000000 0.000000
LeftFoot -16.126412 28.745615 -9.382234
LeftToeBase 22.257423 -0.000000 -0.000000
RightUpLeg 7.259031 -5.297578 2.416560
RightLeg -4.519649 -0.000000 0.000000
RightFoot -5.686166 -24.302695 6.638250
RightToeBase 13.438428 -0.000000 -0.000000
1481
root -5.688021 35.184137 -9.340555 0.538301 -6.307701 -5.780280
Spine -2.769550 -0.423773 9.881019
Head 1.158901 8.054771 -7.773180
LeftShoulder -25.575438 14.233970 6.250444
LeftArm 27.011003 -58.386670 -35.441966
LeftForeArm 20.802415 0.000000 4.782027
LeftHand -7.786366 -0.000000 0.260542
LeftHandThumb1 -26.253704 0.000000 33.147579
RightShoulder -10.078198 16.187222 -25.001625
RightArm -4.615301 20.151318 16.155680
RightForeArm -35.667866 -0.000000 17.121378
RightHand -9.567969 0.000000 3.916390
RightHandThumb1 -24.326973 -0.000000 -32.862282
LeftUpLeg 11.017866 14.767802 6.972781
LeftLeg -9.668757 -0.000000 0.000000
LeftFoot -16.129639 28.757471 -9.389342
LeftToeBase 22.283870 -0.000000 -0.000000
RightUpLeg 7.260472 -5.297870 2.420048
RightLeg -4.522078 -0.000000 0.000000
RightFoot -5.702336 -24.317625 6.614228
RightToeBase 13.524972 -0.000000 -0.000000
1482
root -5.688674 35.183886 -9.339902 0.542302 -6.313800 -5.781033
Spine -2.766159 -0.415436 9.875349
Head 1.145073 8.058835 -7.776775
LeftShoulder -25.582255 14.239260 6.249857
LeftArm 27.033232 -58.416510 -35.474289
LeftForeArm 20.821623 -0.000000 4.790379
LeftHand -7.786089 -0.000000 0.266912
LeftHandThumb1 -26.253704 0.000000 33.147579
RightShoulder -10.080887 16.184214 -25.006131
RightArm -4.623147 20.183015 16.162060
RightForeArm -35.629555 -0.000000 17.136766
RightHand -9.594932 -0.000000 3.889334
RightHandThumb1 -24.326973 -0.000000 -32.862282
LeftUpLeg 11.016085 14.763396 6.973804
LeftLeg -9.666004 -0.000000 0.000000
LeftFoot -16.137008 28.765483 -9.393316
LeftToeBase 22.284786 -0.000000 -0.000000
RightUpLeg 7.258617 -5.284755 2.422771
RightLeg -4.523507 -0.000000 0.000000
RightFoot -5.696252 -24.326969 6.589384
RightToeBase 13.571766 -0.000000 -0.000000
1483
root -5.690295 35.183399 -9.339194 0.554578 -6.313073 -5.781886
Spine -2.776610 -0.414029 9.861959
Head 1.132182 8.059615 -7.773234
LeftShoulder -25.595191 14.250131 6.264914
LeftArm 27.044057 -58.411274 -35.496582
LeftForeArm 20.858022 -0.000000 4.810508
LeftHand -7.853814 -0.000000 0.340770
LeftHandThumb1 -26.253704 0.000000 33.147579
RightShoulder -10.079237 16.197428 -25.003211
RightArm -4.640068 20.218326 16.159472
RightForeArm -35.629610 -0.000000 17.143901
RightHand -9.599754 0.000000 3.908944
RightHandThumb1 -24.326973 -0.000000 -32.862282
LeftUpLeg 11.005335 14.733055 6.976188
LeftLeg -9.657345 -0.000000 0.000000
LeftFoot -16.130961 28.753380 -9.376589
LeftToeBase 22.255681 -0.000000 -0.000000
RightUpLeg 7.247486 -5.284729 2.425652
RightLeg -4.521707 -0.000000 0.000000
RightFoot -5.707571 -24.311379 6.609821
RightToeBase 13.526115 -0.000000 -0.000000
1484
root -5.691170 35.183083 -9.338354 0.555475 -6.321731 -5.789606
Spine -2.766064 -0.398001 9.864850
Head 1.114024 8.079687 -7.777194
LeftShoulder -25.600955 14.243334 6.266975
LeftArm 27.045899 -58.410671 -35.500884
LeftForeArm 20.858756 -0.000000 4.816473
LeftHand -7.855435 0.000000 0.333387
LeftHandThumb1 -26.253704 0.000000 33.147579
RightShoulder -10.095137 16.223909 -25.020481
RightArm -4.643061 20.226669 16.164331
RightForeArm -35.603143 -0.000000 17.139462
RightHand -9.593146 -0.000000 3.918107
RightHandThumb1 -24.326973 -0.000000 -32.862282
LeftUpLeg 11.009312 14.773582 6.987655
LeftLeg -9.661813 -0.000000 0.000000
LeftFoot -16.172860 28.726023 -9.437557
LeftToeBase 22.299197 -0.000000 -0.000000
RightUpLeg 7.246541 -5.279741 2.435932
RightLeg -4.520152 -0.000000 0.000000
RightFoot -5.705372 -24.329662 6.588969
RightToeBase 13.529339 -0.000000 -0.000000
1485
root -5.692301 35.182986 -9.337701 0.559170 -6.315044 -5.793730
Spine -2.764754 -0.401347 9.862579
Head 1.100355 8.086169 -7.782632
LeftShoulder -25.607649 14.229648 6.268076
LeftArm 27.031736 -58.400144 -35.478824
LeftForeArm 20.862772 -0.000000 4.812742
LeftHand -7.831120 -0.000000 0.348209
LeftHandThumb1 -26.253704 0.000000 33.147579
RightShoulder -10.104016 16.201931 -25.024723
RightArm -4.635173 20.296209 16.180042
RightForeArm -35.622113 -0.000000 17.143870
RightHand -9.570602 -0.000000 3.874866
RightHandThumb1 -24.326973 -0.000000 -32.862282
LeftUpLeg 11.010233 14.771644 6.992190
LeftLeg -9.672782 -0.000000 0.000000
LeftFoot -16.160478 28.729558 -9.424375
LeftToeBase 22.296802 -0.000000 -0.000000
RightUpLeg 7.251392 -5.269531 2.441566
RightLeg -4.530191 -0.000000 0.000000
RightFoot -5.703368 -24.334757 6.621550
RightToeBase 13.513561 -0.000000 -0.000000
